<svg width="237" height="91" viewBox="0 0 237 91" fill="none" xmlns="http://www.w3.org/2000/svg">
<circle cx="198.494" cy="74.2997" r="14.0412" stroke="#2B4F97" stroke-width="5"/>
<path d="M114.839 13.1092C114.514 10.7229 110.77 7.04404 109.821 10.4336C107.245 7.58637 106.84 6.73726 106.84 6.73675C107.973 4.55626 115.109 3.66068 115.109 9.99078C118.093 5.55882 125.143 6.19443 127.041 9.99077C128.56 13.0278 125.865 16.6252 125.007 17.3483C128.803 9.85518 118.5 6.19443 114.839 13.1092Z" fill="#BCD1FF"/>
<path d="M37.2025 55.7784C34.7413 66.812 46.9196 70.9165 53.3975 67.9332C40.5764 66.0346 40.5048 60.2534 42.934 55.7784C48.1974 48.3201 53.3258 49.8119 57.1046 49.2695C55.935 47.7326 53.7307 44.7945 52.9209 43.1673C52.2681 41.8554 50.3607 36.625 56.0249 33.1326C61.9631 29.4713 68.108 36.3375 69.8624 39.7276C78.4998 28.6081 84.033 41.0836 82.9534 44.2025C83.7115 42.4506 84.2034 42.0223 84.3109 40.4847C84.438 38.6667 84.058 36.792 83.0796 35.2544C79.297 29.3093 71.7673 33.2426 70.1955 36.5228C70.1955 31.8621 61.3257 24.9965 53.0561 31.0987C46.1465 36.1974 47.2527 44.3877 50.0868 46.1506C45.3633 45.4726 38.9569 47.9134 37.2025 55.7784Z" fill="#BCD1FF"/>
<path fill-rule="evenodd" clip-rule="evenodd" d="M41.7599 81.0789C44.0063 81.0789 45.8274 79.3186 45.8274 77.147C45.8274 74.9755 44.0063 73.2151 41.7599 73.2151C39.5135 73.2151 37.6924 74.9755 37.6924 77.147C37.6924 79.3186 39.5135 81.0789 41.7599 81.0789ZM40.8106 79.7231C41.9338 79.7231 42.8444 78.8732 42.8444 77.8249C42.8444 76.7766 41.9338 75.9267 40.8106 75.9267C39.6874 75.9267 38.7769 76.7766 38.7769 77.8249C38.7769 78.8732 39.6874 79.7231 40.8106 79.7231Z" fill="#7DA3F4"/>
<path fill-rule="evenodd" clip-rule="evenodd" d="M23.8625 76.469C27.4568 76.469 30.3705 73.2518 30.3705 69.2831C30.3705 65.3144 27.4568 62.0972 23.8625 62.0972C20.2682 62.0972 17.3545 65.3144 17.3545 69.2831C17.3545 73.2518 20.2682 76.469 23.8625 76.469ZM23.0491 72.6728C25.2955 72.6728 27.1166 70.6696 27.1166 68.1985C27.1166 65.7274 25.2955 63.7243 23.0491 63.7243C20.8027 63.7243 18.9816 65.7274 18.9816 68.1985C18.9816 70.6696 20.8027 72.6728 23.0491 72.6728Z" fill="#2B4F97"/>
<path fill-rule="evenodd" clip-rule="evenodd" d="M33.4888 39.3192C39.2546 39.3192 43.9287 34.9486 43.9287 29.5572C43.9287 24.1658 39.2546 19.7952 33.4888 19.7952C27.7229 19.7952 23.0488 24.1658 23.0488 29.5572C23.0488 34.9486 27.7229 39.3192 33.4888 39.3192ZM34.9807 34.7095C38.575 34.7095 41.4887 32.0386 41.4887 28.7438C41.4887 25.4491 38.575 22.7781 34.9807 22.7781C31.3864 22.7781 28.4727 25.4491 28.4727 28.7438C28.4727 32.0386 31.3864 34.7095 34.9807 34.7095Z" fill="#7DA3F4"/>
<path fill-rule="evenodd" clip-rule="evenodd" d="M39.8405 11.1178C43.1238 11.1178 45.7854 8.62903 45.7854 5.55892C45.7854 2.48882 43.1238 0 39.8405 0C36.5572 0 33.8955 2.48882 33.8955 5.55892C33.8955 8.62903 36.5572 11.1178 39.8405 11.1178ZM40.6901 8.49275C42.7368 8.49275 44.396 6.97181 44.396 5.09563C44.396 3.21946 42.7368 1.69851 40.6901 1.69851C38.6433 1.69851 36.9841 3.21946 36.9841 5.09563C36.9841 6.97181 38.6433 8.49275 40.6901 8.49275Z" fill="#BCD1FF"/>
<path fill-rule="evenodd" clip-rule="evenodd" d="M12.2573 18.6262C13.1733 15.7347 11.5432 12.639 8.61641 11.7119C5.68963 10.7847 2.57448 12.3772 1.65851 15.2687C0.74254 18.1602 2.37262 21.2559 5.29939 22.183C8.22616 23.1101 11.3413 21.5177 12.2573 18.6262ZM9.9916 17.0856C10.5626 15.2831 9.57554 13.3626 7.78696 12.796C5.99837 12.2294 4.08556 13.2313 3.51457 15.0338C2.94357 16.8363 3.93062 18.7569 5.7192 19.3235C7.50779 19.89 9.4206 18.8881 9.9916 17.0856Z" fill="#2B4F97"/>
<path d="M113.076 29.2861C111.992 28.4183 109.913 28.4726 109.009 28.6082C110.636 26.3303 111.269 20.2924 111.449 18.3038C111.992 19.7139 112.805 26.71 113.076 29.2861Z" fill="#1E1E1E"/>
<path fill-rule="evenodd" clip-rule="evenodd" d="M88.5987 90.616C113.882 91.0135 137.84 91.3903 137.84 86.9983C137.795 85.8709 135.193 82.9397 123.527 79.6926L127.855 78.774L177.754 79.5419C178.133 79.5477 178.369 79.0759 178.193 78.7406C175.022 72.6995 179.769 51.6189 199.277 52.9048C203.563 53.1873 220.605 56.1046 219.164 77.0179C219.146 77.2812 219.362 77.5128 219.626 77.4959L235.033 76.5079C235.636 76.4693 236.191 76.1232 236.382 75.5497C236.712 74.558 236.834 73.3308 235.869 72.9281V66.1635C236.466 66.1635 236.949 65.6781 236.959 65.0816C236.964 64.7462 236.971 64.4282 236.978 64.1246C237.062 60.3719 237.096 58.8361 233.335 54.1221C233.069 53.7889 233.008 53.3357 233.18 52.9461C233.341 52.5846 233.303 52.1643 233.064 51.8494C226.702 43.4765 211.524 40.7962 198.589 38.5119C195.441 37.956 192.426 37.4236 189.703 36.8383C188.796 36.6431 187.871 36.5345 186.942 36.5345C185.194 36.5345 183.466 36.1704 181.894 35.4039C179.438 34.2059 176.883 32.8559 174.187 31.4309C159.69 23.7691 141.092 13.9408 111.645 13.9408C110.429 7.58214 103.948 1.49387 95.1716 1.62917C88.1502 1.7374 83.7843 5.37225 82.479 7.17615C79.2384 -0.941343 71.4068 3.52329 70.3266 7.71734C64.1154 -0.670828 51.4229 2.57633 48.4522 12.3173C46.2513 19.5339 52.5929 22.1936 55.3384 22.4642C51.2426 20.0289 50.8828 13.3996 54.3935 9.74669C60.6203 3.26768 69.1562 9.38598 71.0015 12.3173C70.4614 11.3703 72.6218 6.77034 76.6726 6.77034C79.9133 6.77034 80.9935 9.92714 81.1285 11.5055C88.2849 6.36445 98.2769 5.82328 104.218 12.9938C108.971 18.7301 107.279 27.47 105.838 31.1229C115.128 30.4735 115.291 35.8581 114.885 38.6992C108.809 40.7285 106.604 45.6893 105.838 48.1697C105.164 47.2226 102.868 45.0872 98.2772 46.1402C87.0699 48.7108 91.4806 57.8454 94.7662 62.24C89.1491 51.6331 100.842 44.9226 106.108 51.4167C106.866 49.7038 107.683 48.2831 108.546 47.109C114.469 39.0488 130.973 42.9626 131.384 52.9566C131.603 58.2748 126.611 63.0355 122.582 65.0811C125.552 66.8399 125.855 69.0046 125.552 70.7634C124.472 77.0409 115.74 77.8888 111.51 77.528C115.38 78.6103 123.257 81.3973 123.797 83.8867C124.337 86.3761 85.8545 89.2532 66.5456 90.3806C73.6284 90.3806 81.1707 90.4992 88.5987 90.616ZM121.89 37.8276L170.7 44.2001L175.322 39.9797C176.146 39.2271 176.066 37.9225 175.123 37.3249C168.039 32.8341 141.477 17.1214 118.146 18.168C115.656 18.2797 116.239 20.0678 118.542 27.1263C119.429 29.8438 120.57 33.3426 121.89 37.8276Z" fill="#7DA3F4"/>
<path d="M181.818 50.7083L136.892 46.9742C135.448 46.8542 135 48.661 136.358 49.1662C149.41 54.0199 163.571 56.4358 170.836 58.1654C176.083 59.4148 175.31 50.9795 181.818 50.7083Z" fill="#BCD1FF"/>
</svg>
